<svg width="1920" height="468" viewBox="0 0 1920 468" fill="none" xmlns="http://www.w3.org/2000/svg">
<g clip-path="url(#clip0_2320_3680)">
<path opacity="0.2" d="M0 0H1920V468H0V0Z" fill="url(#paint0_linear_2320_3680)"/>
<g opacity="0.2" clip-path="url(#clip1_2320_3680)">
<path d="M30.0975 330C-48.4557 330 -112 393.544 -112 472.097C-112 550.456 -48.4557 614.195 30.0975 614.195C108.456 614.195 172.195 550.651 172.195 472.097C172 393.544 108.456 330 30.0975 330ZM30.0975 605.034C-43.3878 605.034 -102.839 545.583 -102.839 472.097C-102.839 398.612 -43.3878 339.161 30.0975 339.161C103.583 339.161 163.034 398.612 163.034 472.097C163.034 545.388 103.388 605.034 30.0975 605.034Z" fill="white"/>
<path d="M30.0985 360.603C-31.3016 360.603 -81.2014 410.502 -81.2014 471.902C-81.2014 533.303 -31.3016 583.202 30.0985 583.202C91.4986 583.202 141.398 533.498 141.398 472.097C141.398 410.502 91.4986 360.603 30.0985 360.603ZM30.0985 566.244C-21.9454 566.244 -64.2433 523.946 -64.2433 471.902C-64.2433 419.859 -21.9454 377.561 30.0985 377.561C82.1424 377.561 124.44 419.859 124.44 471.902C124.44 523.946 82.1424 566.244 30.0985 566.244Z" fill="white"/>
<path d="M30.098 409.527C-4.40304 409.527 -32.4717 437.596 -32.4717 472.097C-32.4717 506.598 -4.59796 534.667 30.098 534.667C64.599 534.667 92.6677 506.598 92.6677 472.097C92.4727 437.596 64.599 409.527 30.098 409.527ZM30.098 505.623C11.5805 505.623 -3.42843 490.614 -3.42843 472.097C-3.42843 453.579 11.5805 438.571 30.098 438.571C48.6155 438.571 63.6244 453.579 63.6244 472.097C63.6244 490.614 48.6155 505.623 30.098 505.623Z" fill="white"/>
</g>
<g opacity="0.3">
<path d="M1639.34 446.322L1653 446.322L1653 410L1616.68 410L1616.68 423.556L1639.34 423.556L1639.34 446.322Z" fill="white"/>
<path d="M1614.82 470.845L1628.37 470.845L1628.37 434.523L1592.15 434.523L1592.15 448.183L1614.82 448.183L1614.82 470.845Z" fill="white"/>
<path d="M1590.19 495.372L1603.85 495.372L1603.85 459.153L1567.53 459.153L1567.53 472.709L1590.19 472.709L1590.19 495.372Z" fill="white"/>
</g>
<g opacity="0.8" clip-path="url(#clip2_2320_3680)">
<path d="M1768.34 163.264C1768.34 164.784 1767.19 165.923 1765.67 165.923C1764.14 165.923 1763 164.784 1763 163.264C1763 161.745 1764.14 160.605 1765.67 160.605C1767.19 160.605 1768.34 161.872 1768.34 163.264Z" fill="white"/>
<path d="M1791.08 163.264C1791.08 164.784 1789.93 165.923 1788.41 165.923C1786.88 165.923 1785.74 164.784 1785.74 163.264C1785.74 161.745 1786.88 160.605 1788.41 160.605C1789.81 160.605 1791.08 161.872 1791.08 163.264Z" fill="white"/>
<path d="M1813.69 163.264C1813.69 164.784 1812.54 165.923 1811.02 165.923C1809.5 165.923 1808.35 164.784 1808.35 163.264C1808.35 161.745 1809.5 160.605 1811.02 160.605C1812.54 160.605 1813.69 161.872 1813.69 163.264Z" fill="white"/>
<path d="M1836.43 163.264C1836.43 164.784 1835.28 165.923 1833.76 165.923C1832.24 165.923 1831.09 164.784 1831.09 163.264C1831.09 161.745 1832.24 160.605 1833.76 160.605C1835.28 160.605 1836.43 161.872 1836.43 163.264Z" fill="white"/>
<path d="M1859.17 163.264C1859.17 164.784 1858.02 165.923 1856.5 165.923C1854.98 165.923 1853.83 164.784 1853.83 163.264C1853.83 161.745 1854.98 160.605 1856.5 160.605C1857.9 160.605 1859.17 161.872 1859.17 163.264Z" fill="white"/>
<path d="M1881.91 163.264C1881.91 164.784 1880.76 165.923 1879.24 165.923C1877.72 165.923 1876.57 164.784 1876.57 163.264C1876.57 161.745 1877.72 160.605 1879.24 160.605C1880.76 160.605 1881.91 161.872 1881.91 163.264Z" fill="white"/>
<path d="M1904.52 163.264C1904.52 164.784 1903.38 165.923 1901.85 165.923C1900.33 165.923 1899.18 164.784 1899.18 163.264C1899.18 161.745 1900.33 160.605 1901.85 160.605C1903.38 160.605 1904.52 161.872 1904.52 163.264Z" fill="white"/>
<path d="M1768.34 182.131C1768.34 183.65 1767.19 184.79 1765.67 184.79C1764.14 184.79 1763 183.65 1763 182.131C1763 180.611 1764.14 179.472 1765.67 179.472C1767.19 179.472 1768.34 180.611 1768.34 182.131Z" fill="white"/>
<path d="M1791.08 182.131C1791.08 183.65 1789.93 184.79 1788.41 184.79C1786.88 184.79 1785.74 183.65 1785.74 182.131C1785.74 180.611 1786.88 179.472 1788.41 179.472C1789.81 179.472 1791.08 180.611 1791.08 182.131Z" fill="white"/>
<path d="M1813.69 182.131C1813.69 183.65 1812.54 184.79 1811.02 184.79C1809.5 184.79 1808.35 183.65 1808.35 182.131C1808.35 180.611 1809.5 179.472 1811.02 179.472C1812.54 179.472 1813.69 180.611 1813.69 182.131Z" fill="white"/>
<path d="M1836.43 182.131C1836.43 183.65 1835.28 184.79 1833.76 184.79C1832.24 184.79 1831.09 183.65 1831.09 182.131C1831.09 180.611 1832.24 179.472 1833.76 179.472C1835.28 179.472 1836.43 180.611 1836.43 182.131Z" fill="white"/>
<path d="M1859.17 182.131C1859.17 183.65 1858.02 184.79 1856.5 184.79C1854.98 184.79 1853.83 183.65 1853.83 182.131C1853.83 180.611 1854.98 179.472 1856.5 179.472C1857.9 179.472 1859.17 180.611 1859.17 182.131Z" fill="white"/>
<path d="M1881.91 182.131C1881.91 183.65 1880.76 184.79 1879.24 184.79C1877.72 184.79 1876.57 183.65 1876.57 182.131C1876.57 180.611 1877.72 179.472 1879.24 179.472C1880.76 179.472 1881.91 180.611 1881.91 182.131Z" fill="white"/>
<path d="M1904.52 182.131C1904.52 183.65 1903.38 184.79 1901.85 184.79C1900.33 184.79 1899.18 183.65 1899.18 182.131C1899.18 180.611 1900.33 179.472 1901.85 179.472C1903.38 179.472 1904.52 180.611 1904.52 182.131Z" fill="white"/>
<path d="M1768.34 125.659C1768.34 127.178 1767.19 128.318 1765.67 128.318C1764.14 128.318 1763 127.178 1763 125.659C1763 124.14 1764.14 123 1765.67 123C1767.19 123 1768.34 124.14 1768.34 125.659Z" fill="white"/>
<path d="M1791.08 125.659C1791.08 127.178 1789.93 128.318 1788.41 128.318C1786.88 128.318 1785.74 127.178 1785.74 125.659C1785.74 124.14 1786.88 123 1788.41 123C1789.81 123 1791.08 124.14 1791.08 125.659Z" fill="white"/>
<path d="M1813.69 125.659C1813.69 127.178 1812.54 128.318 1811.02 128.318C1809.5 128.318 1808.35 127.178 1808.35 125.659C1808.35 124.14 1809.62 123 1811.02 123C1812.54 123 1813.69 124.14 1813.69 125.659Z" fill="white"/>
<path d="M1836.43 125.659C1836.43 127.178 1835.28 128.318 1833.76 128.318C1832.24 128.318 1831.09 127.178 1831.09 125.659C1831.09 124.14 1832.36 123 1833.76 123C1835.16 123 1836.43 124.14 1836.43 125.659Z" fill="white"/>
<path d="M1859.17 125.659C1859.17 127.178 1858.02 128.318 1856.5 128.318C1854.98 128.318 1853.83 127.178 1853.83 125.659C1853.83 124.14 1854.98 123 1856.5 123C1857.9 123 1859.17 124.14 1859.17 125.659Z" fill="white"/>
<path d="M1881.91 125.659C1881.91 127.178 1880.76 128.318 1879.24 128.318C1877.72 128.318 1876.57 127.178 1876.57 125.659C1876.57 124.14 1877.72 123 1879.24 123C1880.76 123 1881.91 124.14 1881.91 125.659Z" fill="white"/>
<path d="M1904.52 125.659C1904.52 127.178 1903.38 128.318 1901.85 128.318C1900.33 128.318 1899.18 127.178 1899.18 125.659C1899.18 124.14 1900.33 123 1901.85 123C1903.38 123 1904.52 124.14 1904.52 125.659Z" fill="white"/>
<path d="M1768.34 144.525C1768.34 146.045 1767.19 147.184 1765.67 147.184C1764.14 147.184 1763 145.918 1763 144.525C1763 143.006 1764.14 141.866 1765.67 141.866C1767.19 141.866 1768.34 143.006 1768.34 144.525Z" fill="white"/>
<path d="M1791.08 144.525C1791.08 146.045 1789.93 147.184 1788.41 147.184C1786.88 147.184 1785.74 146.045 1785.74 144.525C1785.74 143.006 1786.88 141.866 1788.41 141.866C1789.81 141.866 1791.08 143.006 1791.08 144.525Z" fill="white"/>
<path d="M1813.69 144.525C1813.69 146.045 1812.54 147.184 1811.02 147.184C1809.5 147.184 1808.35 146.045 1808.35 144.525C1808.35 143.006 1809.5 141.866 1811.02 141.866C1812.54 141.866 1813.69 143.006 1813.69 144.525Z" fill="white"/>
<path d="M1836.43 144.525C1836.43 146.045 1835.28 147.184 1833.76 147.184C1832.24 147.184 1831.09 146.045 1831.09 144.525C1831.09 143.006 1832.24 141.866 1833.76 141.866C1835.28 141.866 1836.43 143.006 1836.43 144.525Z" fill="white"/>
<path d="M1859.17 144.525C1859.17 146.045 1858.02 147.184 1856.5 147.184C1854.98 147.184 1853.83 146.045 1853.83 144.525C1853.83 143.006 1854.98 141.866 1856.5 141.866C1857.9 141.866 1859.17 143.006 1859.17 144.525Z" fill="white"/>
<path d="M1881.91 144.525C1881.91 146.045 1880.76 147.184 1879.24 147.184C1877.72 147.184 1876.57 146.045 1876.57 144.525C1876.57 143.006 1877.72 141.866 1879.24 141.866C1880.76 141.866 1881.91 143.006 1881.91 144.525Z" fill="white"/>
<path d="M1904.52 144.525C1904.52 146.045 1903.38 147.184 1901.85 147.184C1900.33 147.184 1899.18 146.045 1899.18 144.525C1899.18 143.006 1900.33 141.866 1901.85 141.866C1903.38 141.866 1904.52 143.006 1904.52 144.525Z" fill="white"/>
<path d="M1768.34 200.87C1768.34 202.389 1767.19 203.529 1765.67 203.529C1764.14 203.529 1763 202.389 1763 200.87C1763 199.35 1764.14 198.211 1765.67 198.211C1767.19 198.211 1768.34 199.477 1768.34 200.87Z" fill="white"/>
<path d="M1791.08 200.87C1791.08 202.389 1789.93 203.529 1788.41 203.529C1786.88 203.529 1785.74 202.389 1785.74 200.87C1785.74 199.35 1786.88 198.211 1788.41 198.211C1789.81 198.211 1791.08 199.477 1791.08 200.87Z" fill="white"/>
<path d="M1813.69 200.87C1813.69 202.389 1812.54 203.529 1811.02 203.529C1809.5 203.529 1808.35 202.389 1808.35 200.87C1808.35 199.35 1809.5 198.211 1811.02 198.211C1812.54 198.211 1813.69 199.477 1813.69 200.87Z" fill="white"/>
<path d="M1836.43 200.87C1836.43 202.389 1835.28 203.529 1833.76 203.529C1832.24 203.529 1831.09 202.389 1831.09 200.87C1831.09 199.35 1832.24 198.211 1833.76 198.211C1835.28 198.211 1836.43 199.477 1836.43 200.87Z" fill="white"/>
<path d="M1859.17 200.87C1859.17 202.389 1858.02 203.529 1856.5 203.529C1854.98 203.529 1853.83 202.389 1853.83 200.87C1853.83 199.35 1854.98 198.211 1856.5 198.211C1857.9 198.211 1859.17 199.477 1859.17 200.87Z" fill="white"/>
<path d="M1881.91 200.87C1881.91 202.389 1880.76 203.529 1879.24 203.529C1877.72 203.529 1876.57 202.389 1876.57 200.87C1876.57 199.35 1877.72 198.211 1879.24 198.211C1880.76 198.211 1881.91 199.477 1881.91 200.87Z" fill="white"/>
<path d="M1904.52 200.87C1904.52 202.389 1903.38 203.529 1901.85 203.529C1900.33 203.529 1899.18 202.389 1899.18 200.87C1899.18 199.35 1900.33 198.211 1901.85 198.211C1903.38 198.211 1904.52 199.477 1904.52 200.87Z" fill="white"/>
<path d="M1768.34 219.736C1768.34 221.256 1767.19 222.395 1765.67 222.395C1764.14 222.395 1763 221.256 1763 219.736C1763 218.217 1764.14 217.077 1765.67 217.077C1767.19 217.077 1768.34 218.217 1768.34 219.736Z" fill="white"/>
<path d="M1791.08 219.736C1791.08 221.256 1789.93 222.395 1788.41 222.395C1786.88 222.395 1785.74 221.256 1785.74 219.736C1785.74 218.217 1786.88 217.077 1788.41 217.077C1789.81 217.077 1791.08 218.217 1791.08 219.736Z" fill="white"/>
<path d="M1813.69 219.736C1813.69 221.256 1812.54 222.395 1811.02 222.395C1809.5 222.395 1808.35 221.256 1808.35 219.736C1808.35 218.217 1809.5 217.077 1811.02 217.077C1812.54 217.077 1813.69 218.217 1813.69 219.736Z" fill="white"/>
<path d="M1833.76 222.395C1835.23 222.395 1836.43 221.205 1836.43 219.736C1836.43 218.268 1835.23 217.077 1833.76 217.077C1832.29 217.077 1831.09 218.268 1831.09 219.736C1831.09 221.205 1832.29 222.395 1833.76 222.395Z" fill="white"/>
<path d="M1859.17 219.736C1859.17 221.256 1858.02 222.395 1856.5 222.395C1854.98 222.395 1853.83 221.256 1853.83 219.736C1853.83 218.217 1854.98 217.077 1856.5 217.077C1857.9 217.077 1859.17 218.217 1859.17 219.736Z" fill="white"/>
<path d="M1881.91 219.736C1881.91 221.256 1880.76 222.395 1879.24 222.395C1877.72 222.395 1876.57 221.256 1876.57 219.736C1876.57 218.217 1877.72 217.077 1879.24 217.077C1880.76 217.077 1881.91 218.217 1881.91 219.736Z" fill="white"/>
<path d="M1904.52 219.736C1904.52 221.256 1903.38 222.395 1901.85 222.395C1900.33 222.395 1899.18 221.256 1899.18 219.736C1899.18 218.217 1900.33 217.077 1901.85 217.077C1903.38 217.077 1904.52 218.217 1904.52 219.736Z" fill="white"/>
<path d="M1768.34 238.601C1768.34 240.121 1767.19 241.26 1765.67 241.26C1764.14 241.26 1763 240.121 1763 238.601C1763 237.082 1764.14 235.942 1765.67 235.942C1767.19 235.942 1768.34 237.082 1768.34 238.601Z" fill="white"/>
<path d="M1791.08 238.601C1791.08 240.121 1789.93 241.26 1788.41 241.26C1786.88 241.26 1785.74 240.121 1785.74 238.601C1785.74 237.082 1786.88 235.942 1788.41 235.942C1789.81 235.942 1791.08 237.082 1791.08 238.601Z" fill="white"/>
<path d="M1813.69 238.601C1813.69 240.121 1812.54 241.26 1811.02 241.26C1809.5 241.26 1808.35 240.121 1808.35 238.601C1808.35 237.082 1809.5 235.942 1811.02 235.942C1812.54 235.942 1813.69 237.082 1813.69 238.601Z" fill="white"/>
<path d="M1836.43 238.601C1836.43 240.121 1835.28 241.26 1833.76 241.26C1832.24 241.26 1831.09 240.121 1831.09 238.601C1831.09 237.082 1832.24 235.942 1833.76 235.942C1835.28 235.942 1836.43 237.082 1836.43 238.601Z" fill="white"/>
<path d="M1859.17 238.601C1859.17 240.121 1858.02 241.26 1856.5 241.26C1854.98 241.26 1853.83 240.121 1853.83 238.601C1853.83 237.082 1854.98 235.942 1856.5 235.942C1857.9 235.942 1859.17 237.082 1859.17 238.601Z" fill="white"/>
<path d="M1881.91 238.601C1881.91 240.121 1880.76 241.26 1879.24 241.26C1877.72 241.26 1876.57 240.121 1876.57 238.601C1876.57 237.082 1877.72 235.942 1879.24 235.942C1880.76 235.942 1881.91 237.082 1881.91 238.601Z" fill="white"/>
<path d="M1904.52 238.601C1904.52 240.121 1903.38 241.26 1901.85 241.26C1900.33 241.26 1899.18 240.121 1899.18 238.601C1899.18 237.082 1900.33 235.942 1901.85 235.942C1903.38 235.942 1904.52 237.082 1904.52 238.601Z" fill="white"/>
<path d="M1768.34 257.341C1768.34 258.86 1767.19 260 1765.67 260C1764.14 260 1763 258.86 1763 257.341C1763 255.821 1764.14 254.682 1765.67 254.682C1767.19 254.682 1768.34 255.948 1768.34 257.341Z" fill="white"/>
<path d="M1791.08 257.341C1791.08 258.86 1789.93 260 1788.41 260C1786.88 260 1785.74 258.86 1785.74 257.341C1785.74 255.821 1786.88 254.682 1788.41 254.682C1789.81 254.682 1791.08 255.948 1791.08 257.341Z" fill="white"/>
<path d="M1813.69 257.341C1813.69 258.86 1812.54 260 1811.02 260C1809.5 260 1808.35 258.86 1808.35 257.341C1808.35 255.821 1809.5 254.682 1811.02 254.682C1812.54 254.682 1813.69 255.948 1813.69 257.341Z" fill="white"/>
<path d="M1836.43 257.341C1836.43 258.86 1835.28 260 1833.76 260C1832.24 260 1831.09 258.86 1831.09 257.341C1831.09 255.821 1832.24 254.682 1833.76 254.682C1835.28 254.682 1836.43 255.948 1836.43 257.341Z" fill="white"/>
<path d="M1859.17 257.341C1859.17 258.86 1858.02 260 1856.5 260C1854.98 260 1853.83 258.86 1853.83 257.341C1853.83 255.821 1854.98 254.682 1856.5 254.682C1857.9 254.682 1859.17 255.948 1859.17 257.341Z" fill="white"/>
<path d="M1881.91 257.341C1881.91 258.86 1880.76 260 1879.24 260C1877.72 260 1876.57 258.86 1876.57 257.341C1876.57 255.821 1877.72 254.682 1879.24 254.682C1880.76 254.682 1881.91 255.948 1881.91 257.341Z" fill="white"/>
<path d="M1904.52 257.341C1904.52 258.86 1903.38 260 1901.85 260C1900.33 260 1899.18 258.86 1899.18 257.341C1899.18 255.821 1900.33 254.682 1901.85 254.682C1903.38 254.682 1904.52 255.948 1904.52 257.341Z" fill="white"/>
</g>
<g opacity="0.3">
<path d="M238.486 170.89C249.205 170.89 257.937 162.165 257.937 151.453C257.937 140.742 249.205 132.017 238.486 132.017L238.486 170.89Z" fill="white"/>
<path d="M208.141 170.89C218.86 170.89 227.592 162.165 227.592 151.453C227.592 140.742 218.86 132.017 208.141 132.017L208.141 170.89Z" fill="white"/>
<path d="M177.796 170.89C188.516 170.89 197.247 162.165 197.247 151.453C197.247 140.742 188.516 132.017 177.796 132.017V170.89Z" fill="white"/>
</g>
</g>
<defs>
<linearGradient id="paint0_linear_2320_3680" x1="-7.15256e-05" y1="468" x2="370.374" y2="-558.904" gradientUnits="userSpaceOnUse">
<stop stop-color="#FF3F3A"/>
<stop offset="1" stop-color="#F75E05"/>
</linearGradient>
<clipPath id="clip0_2320_3680">
<rect width="1920" height="468" fill="white"/>
</clipPath>
<clipPath id="clip1_2320_3680">
<rect width="284" height="284" fill="white" transform="translate(-112 330)"/>
</clipPath>
<clipPath id="clip2_2320_3680">
<rect width="187" height="137" fill="white" transform="translate(1763 123)"/>
</clipPath>
</defs>
</svg>
