<svg width="17" height="17" viewBox="0 0 17 17" fill="none" xmlns="http://www.w3.org/2000/svg">
<path d="M16.6211 4.90004C16.582 4.01448 16.4388 3.40566 16.2337 2.87812C16.022 2.31814 15.6965 1.81679 15.2699 1.40001C14.8531 0.976753 14.3485 0.647862 13.795 0.439539C13.2644 0.234395 12.6587 0.0911891 11.7732 0.0521444C10.881 0.00979296 10.5978 0 8.33495 0C6.07214 0 5.78891 0.00979296 4.90004 0.0488377C4.01448 0.0878824 3.40566 0.231216 2.87824 0.436232C2.31813 0.647862 1.81678 0.973446 1.40001 1.40001C0.976752 1.81679 0.647988 2.32144 0.439538 2.87494C0.234395 3.40566 0.0911889 4.01117 0.0521443 4.89674C0.00979294 5.78892 0 6.07215 0 8.33496C0 10.5978 0.00979295 10.881 0.0488376 11.7699C0.0878822 12.6554 0.231215 13.2643 0.436359 13.7918C0.647988 14.3518 0.976752 14.8531 1.40001 15.2699C1.81678 15.6932 2.32144 16.0221 2.87493 16.2304C3.40566 16.4355 4.01117 16.5787 4.89686 16.6178C5.7856 16.6569 6.06896 16.6666 8.33177 16.6666C10.5946 16.6666 10.8778 16.6569 11.7667 16.6178C12.6522 16.5787 13.2611 16.4355 13.7885 16.2304C14.9086 15.7973 15.7941 14.9118 16.2272 13.7918C16.4322 13.2611 16.5755 12.6554 16.6146 11.7699C16.6536 10.881 16.6634 10.5978 16.6634 8.33496C16.6634 6.07215 16.6601 5.78892 16.6211 4.90004ZM15.1202 11.7048C15.0843 12.5187 14.9476 12.9583 14.8337 13.2513C14.5536 13.9774 13.9773 14.5536 13.2513 14.8337C12.9582 14.9476 12.5155 15.0844 11.7047 15.1201C10.8257 15.1593 10.562 15.1689 8.33826 15.1689C6.11449 15.1689 5.84754 15.1593 4.97164 15.1201C4.15768 15.0844 3.71814 14.9476 3.42512 14.8337C3.0638 14.7001 2.73491 14.4885 2.46795 14.2118C2.19121 13.9415 1.97958 13.6159 1.84604 13.2546C1.73208 12.9616 1.59536 12.5187 1.55962 11.7081C1.52045 10.829 1.51079 10.5652 1.51079 8.34145C1.51079 6.11768 1.52045 5.85073 1.55962 4.97496C1.59536 4.16099 1.73208 3.72146 1.84604 3.42843C1.97958 3.06698 2.19121 2.73822 2.47126 2.47113C2.74139 2.19439 3.06698 1.98276 3.42842 1.84934C3.72145 1.73539 4.1643 1.59867 4.97495 1.56281C5.85402 1.52376 6.1178 1.51397 8.34144 1.51397C10.5685 1.51397 10.8322 1.52376 11.7081 1.56281C12.522 1.59867 12.9615 1.73539 13.2546 1.84934C13.6159 1.98276 13.9448 2.19439 14.2117 2.47113C14.4885 2.74139 14.7001 3.06698 14.8337 3.42843C14.9476 3.72146 15.0843 4.16417 15.1202 4.97496C15.1592 5.85403 15.169 6.11768 15.169 8.34145C15.169 10.5652 15.1592 10.8257 15.1202 11.7048Z" fill="white"/>
<path d="M8.33495 4.05352C5.97128 4.05352 4.05351 5.97117 4.05351 8.33497C4.05351 10.6988 5.97128 12.6164 8.33495 12.6164C10.6987 12.6164 12.6164 10.6988 12.6164 8.33497C12.6164 5.97117 10.6987 4.05352 8.33495 4.05352ZM8.33495 11.1122C6.80152 11.1122 5.55769 9.86852 5.55769 8.33497C5.55769 6.80141 6.80152 5.5577 8.33495 5.5577C9.8685 5.5577 11.1122 6.80141 11.1122 8.33497C11.1122 9.86852 9.8685 11.1122 8.33495 11.1122Z" fill="white"/>
<path d="M13.7853 3.88425C13.7853 4.43622 13.3378 4.88377 12.7857 4.88377C12.2337 4.88377 11.7862 4.43622 11.7862 3.88425C11.7862 3.33215 12.2337 2.88473 12.7857 2.88473C13.3378 2.88473 13.7853 3.33215 13.7853 3.88425Z" fill="white"/>
</svg>
