<svg width="10" height="19" viewBox="0 0 10 19" fill="none" xmlns="http://www.w3.org/2000/svg">
<path d="M9.28576 0.00381456L6.97138 0C4.37125 0 2.69093 1.77091 2.69093 4.51186V6.59213H0.363915C0.162833 6.59213 0 6.75958 0 6.96614V9.98022C0 10.1868 0.163019 10.354 0.363915 10.354H2.69093V17.9595C2.69093 18.1661 2.85376 18.3333 3.05484 18.3333H6.09093C6.29201 18.3333 6.45484 18.1659 6.45484 17.9595V10.354H9.17566C9.37674 10.354 9.53958 10.1868 9.53958 9.98022L9.54069 6.96614C9.54069 6.86696 9.50226 6.77198 9.43412 6.70179C9.36597 6.63161 9.27314 6.59213 9.17659 6.59213H6.45484V4.82866C6.45484 3.98106 6.65147 3.55078 7.72632 3.55078L9.28539 3.55021C9.48629 3.55021 9.64912 3.38275 9.64912 3.17638V0.377641C9.64912 0.171464 9.48647 0.00419601 9.28576 0.00381456Z" fill="white"/>
</svg>
